<?xml version="1.0" encoding="UTF-8"?><svg xmlns="http://www.w3.org/2000/svg" viewBox="0 0 715.22 475.81"><defs><style>.cls-1,.cls-2{fill:#263238;}.cls-3,.cls-4,.cls-5{fill:#fff;}.cls-6{fill:#ababab;}.cls-6,.cls-7,.cls-8,.cls-9,.cls-10,.cls-11,.cls-12,.cls-4,.cls-13,.cls-14,.cls-2{stroke-linecap:round;stroke-linejoin:round;}.cls-6,.cls-8,.cls-9,.cls-10,.cls-11,.cls-4,.cls-13,.cls-2{stroke:#263238;}.cls-7,.cls-15,.cls-11{fill:#92e3a9;}.cls-7,.cls-14{stroke:#fff;}.cls-8{fill:#a3a3a3;}.cls-9{fill:#dbdbdb;}.cls-10{fill:#707070;}.cls-12{stroke:#b8b8b8;}.cls-12,.cls-13,.cls-14{fill:none;}.cls-5{opacity:.7;}</style></defs><g id="Background_Simple"><path class="cls-15" d="M686.11,256.88c-2.82-32.64-12.57-64.71-26.59-94.42C617.64,73.74,531.58-3.76,428.41.14c-66.16,2.5-131.78,11.07-197.58,17.86-56.17,5.79-112.05,11.1-156.28,50.11-19.14,16.88-34.57,38.07-44.05,61.81-26.36,66.01-6.66,143.93,35.93,200.82,42.59,56.9,105,95.73,169.16,126.3,26.16,12.47,55.52,24.02,83.44,16.24,17.19-4.79,31.6-16.41,47.91-23.64,54.9-24.33,118.56,4.29,178.29-1.87,35.48-3.66,69.49-20.23,94.25-45.91,29.57-30.67,45.25-73.25,47.24-115.81.45-9.74.23-19.49-.61-29.18Z"/><path class="cls-5" d="M686.11,256.88c-2.82-32.64-12.57-64.71-26.59-94.42C617.64,73.74,531.58-3.76,428.41.14c-66.16,2.5-131.78,11.07-197.58,17.86-56.17,5.79-112.05,11.1-156.28,50.11-19.14,16.88-34.57,38.07-44.05,61.81-26.36,66.01-6.66,143.93,35.93,200.82,42.59,56.9,105,95.73,169.16,126.3,26.16,12.47,55.52,24.02,83.44,16.24,17.19-4.79,31.6-16.41,47.91-23.64,54.9-24.33,118.56,4.29,178.29-1.87,35.48-3.66,69.49-20.23,94.25-45.91,29.57-30.67,45.25-73.25,47.24-115.81.45-9.74.23-19.49-.61-29.18Z"/></g><g id="Graphics"><line class="cls-13" x1="205.7" y1="47.54" x2="215.19" y2="57.03"/><line class="cls-13" x1="215.19" y1="47.54" x2="205.7" y2="57.03"/><line class="cls-13" x1="678.48" y1="222.82" x2="687.97" y2="232.32"/><line class="cls-13" x1="687.97" y1="222.82" x2="678.48" y2="232.32"/><line class="cls-13" x1="130.64" y1="375.4" x2="140.13" y2="384.89"/><line class="cls-13" x1="140.13" y1="375.4" x2="130.64" y2="384.89"/><line class="cls-13" x1="414.59" y1="12.72" x2="424.08" y2="22.21"/><line class="cls-13" x1="424.08" y1="12.72" x2="414.59" y2="22.21"/><line class="cls-13" x1="420.71" y1="447.35" x2="430.2" y2="456.85"/><line class="cls-13" x1="430.2" y1="447.35" x2="420.71" y2="456.85"/><line class="cls-13" x1="521.81" y1="412.54" x2="529.3" y2="420.03"/><line class="cls-13" x1="529.3" y1="412.54" x2="521.81" y2="420.03"/><line class="cls-13" x1="647.01" y1="35.71" x2="654.5" y2="43.2"/><line class="cls-13" x1="654.5" y1="35.71" x2="647.01" y2="43.2"/><path class="cls-13" d="M329.57,60.28c0-3.3-2.68-5.98-5.98-5.98s-5.98,2.68-5.98,5.98,2.68,5.98,5.98,5.98,5.98-2.68,5.98-5.98Z"/><path class="cls-13" d="M42.51,39.8c0-3.3-2.68-5.98-5.98-5.98s-5.98,2.68-5.98,5.98,2.68,5.98,5.98,5.98,5.98-2.68,5.98-5.98Z"/><path class="cls-13" d="M633.53,403.32c0-3.3-2.68-5.98-5.98-5.98s-5.98,2.68-5.98,5.98,2.68,5.98,5.98,5.98,5.98-2.68,5.98-5.98Z"/><path class="cls-13" d="M140.99,459.64c0-3.3-2.68-5.98-5.98-5.98s-5.98,2.68-5.98,5.98,2.68,5.98,5.98,5.98,5.98-2.68,5.98-5.98Z"/><path class="cls-13" d="M42.85,230.27c0-3.3-2.68-5.98-5.98-5.98s-5.98,2.68-5.98,5.98,2.68,5.98,5.98,5.98,5.98-2.68,5.98-5.98Z"/><path class="cls-13" d="M333.5,350.08c0-3.3-2.68-5.98-5.98-5.98s-5.98,2.68-5.98,5.98,2.68,5.98,5.98,5.98,5.98-2.68,5.98-5.98Z"/></g><g id="Table"><line class="cls-13" x1="703.68" y1="346.35" x2="714.72" y2="348.23"/><polyline class="cls-13" points="147.28 361.46 484.43 308.97 696.64 345.15"/><line class="cls-13" x1=".5" y1="384.31" x2="132.63" y2="363.74"/></g><g id="Device_2"><polygon class="cls-9" points="571.38 66.59 367.48 91.13 367.88 345.56 573.37 378.33 663.17 359.72 663.57 77.78 571.38 66.59"/><line class="cls-13" x1="653.9" y1="351.85" x2="588.56" y2="341.98"/><ellipse class="cls-3" cx="614.53" cy="147.56" rx="29.44" ry="40.42"/><ellipse class="cls-15" cx="614.53" cy="147.56" rx="26.66" ry="36.61"/><ellipse class="cls-2" cx="614.53" cy="147.56" rx="9.78" ry="13.43"/><polygon class="cls-2" points="551.95 143.59 427.49 146.98 427.49 258.15 554.78 272.01 554.78 146.13 551.95 143.59"/><ellipse class="cls-3" cx="417.66" cy="193.34" rx="29.44" ry="40.42"/><ellipse class="cls-15" cx="417.66" cy="193.34" rx="26.66" ry="36.61"/><ellipse class="cls-2" cx="417.66" cy="193.34" rx="9.78" ry="13.43"/><ellipse class="cls-3" cx="614.53" cy="229.72" rx="29.44" ry="40.42"/><ellipse class="cls-15" cx="614.53" cy="229.72" rx="26.66" ry="36.61"/><ellipse class="cls-2" cx="614.53" cy="229.72" rx="9.78" ry="13.43"/><ellipse class="cls-3" cx="614.53" cy="311.89" rx="29.44" ry="40.42"/><ellipse class="cls-15" cx="614.53" cy="311.89" rx="26.66" ry="36.61"/><ellipse class="cls-2" cx="614.53" cy="311.89" rx="9.78" ry="13.43"/><path class="cls-4" d="M508.1,187.29c-.53,0-1.07-.12-1.58-.37-4.82-2.41-11.97-9.77-17.01-17.5-4.84-7.43-9.85-18.3-6.21-27.93,1.77-4.68,8.86-12.59,49.93-27.22,21.99-7.84,43.58-13.91,43.79-13.97,1.88-.53,3.83.57,4.36,2.45.53,1.88-.57,3.83-2.45,4.36-34.88,9.79-85.55,27.7-89.02,36.88-2.72,7.22,2.29,16.62,5.52,21.57,5.22,8,11.59,13.7,14.25,15.03,1.75.87,2.45,3,1.58,4.74-.62,1.24-1.87,1.95-3.16,1.95Z"/><path class="cls-4" d="M505.56,208.22c-.68,0-1.37-.2-1.97-.61-10.04-6.78-13.79-20.95-11.15-42.12,1.22-9.73,5.78-18.53,13.96-26.89,10.98-11.23,28.82-21.79,53.03-31.4,53.98-21.42,79.33-14.28,80.39-13.96,1.87.56,2.93,2.53,2.37,4.4-.56,1.86-2.51,2.93-4.38,2.38-.34-.1-24.57-6.56-75.77,13.76-39.65,15.73-60.12,32.94-62.57,52.6-2.29,18.31.43,30.22,8.09,35.39,1.62,1.09,2.04,3.29.95,4.91-.68,1.01-1.8,1.56-2.93,1.56Z"/><polygon class="cls-4" points="501.58 238.14 501.58 244.28 523.81 244.28 526.87 240.44 536.45 240.44 536.45 160.35 526.87 158.43 522.27 154.21 504.64 154.21 501.58 163.41 501.58 238.14"/><rect class="cls-7" x="501.58" y="163.41" width="15.71" height="74.73"/><polygon class="cls-4" points="563.66 200.59 527.26 197.9 527.26 232.01 562.13 237 563.66 200.59"/><line class="cls-13" x1="527.67" y1="202.06" x2="563.23" y2="205.09"/><line class="cls-13" x1="527.29" y1="207.92" x2="563.04" y2="211.9"/><line class="cls-13" x1="527.48" y1="213.6" x2="562.66" y2="217.76"/><line class="cls-13" x1="527.29" y1="219.27" x2="562.66" y2="223.81"/><line class="cls-13" x1="526.91" y1="224.19" x2="562.1" y2="229.11"/><line class="cls-13" x1="527.1" y1="228.73" x2="561.91" y2="234.22"/><polygon class="cls-2" points="527.26 197.9 527.26 177.28 529.56 178.6 529.56 197.9 527.26 197.9"/><polygon class="cls-2" points="387.29 247.41 387.29 331.42 393.11 332.03 393.11 248.33 387.29 247.41"/><polygon class="cls-6" points="393.11 248.33 461.68 244.79 461.68 254.58 564.23 265.91 564.23 302.03 545.86 307.23 460.76 296.21 460.76 317.64 560.56 332.34 560.56 360.19 393.11 332.03 393.11 248.33"/><polygon class="cls-6" points="461.68 254.58 392.8 259.35 527.8 269.28 564.23 265.91 461.68 254.58"/><polygon class="cls-2" points="527.8 269.28 527.8 304.48 545.86 307.23 564.23 302.03 564.23 265.91 527.8 269.28"/><polygon class="cls-2" points="392.8 259.35 392.8 289.94 460.76 296.21 527.8 304.48 527.8 269.28 392.8 259.35"/><polyline class="cls-14" points="421.36 291.49 429 277.15 483.95 282.65 487.77 286.71"/><path class="cls-4" d="M494.74,272.95s-7.04,3.67-5.51,17.75c1.53,14.08,15.31,32.14,25.71,38.57,10.41,6.43,34.9,10.1,38.57,9.8,3.67-.31,5.82-.61,5.82-.61v-14.08s-8.88,2.45-18.37,0c-9.49-2.45-27.86-28.47-30-33.98-2.14-5.51,2.75-11.33,2.75-11.33v-4.59l-18.98-1.53Z"/><path class="cls-13" d="M503.92,274.17s-6.12,3.06-3.37,16.53,14.39,29.69,27.55,38.26c13.16,8.57,25.1,6.73,25.1,6.73"/><path class="cls-13" d="M513.72,274.48s-6.33,5.12-5.84,14.06c.5,8.93,14.39,23.58,20.47,30.03"/><path class="cls-13" d="M506.15,276.75s-2.98,5.46-1.24,15.01c1.74,9.55,17.5,28.29,27.92,34.99"/><path class="cls-13" d="M498.58,273.15s-3.6,1.86-3.23,12.28c.37,10.42,8.69,27.42,19.6,38.34"/><path class="cls-13" d="M491.88,287.42s-1.24,10.55,10.55,26.93"/><path class="cls-13" d="M537.66,327.74s10.55,2.36,20.6,2.98"/><polygon class="cls-4" points="387.29 247.41 434.65 244.05 461.68 244.79 393.11 248.33 387.29 247.41"/><polygon class="cls-2" points="393.53 309.01 445.58 302.06 445.58 315.36 393.33 326.09 393.11 332.03 460.76 317.64 460.76 296.21 441.21 294.51 393.13 297.68 393.53 309.01"/><path class="cls-3" d="M397,336.87v12.42c0,3.17,19.84,5.73,44.31,5.73s44.31-2.57,44.31-5.73v-12.42h-88.62Z"/><ellipse class="cls-15" cx="441.31" cy="336.87" rx="44.31" ry="5.73"/><path class="cls-2" d="M449.31,335.8c0,.99-5.24,1.79-11.7,1.79s-11.7-.8-11.7-1.79,5.24-1.79,11.7-1.79,11.7.8,11.7,1.79Z"/><path class="cls-3" d="M491.79,344.2l-.36,12.42c-.09,3.17,19.67,10.13,44.13,10.83,24.46.7,44.37-1.29,44.46-4.46l.36-16.24-88.59-2.55Z"/><path class="cls-15" d="M580.37,346.75c-.09,3.16-20,5.16-44.46,4.46-24.46-.7-44.22-3.84-44.13-7,.09-3.17,20-5.16,44.46-4.46,24.46.7,44.22,3.84,44.13,7Z"/><path class="cls-2" d="M544.11,344.63c-.03.99-5.29,1.64-11.75,1.45-6.46-.19-11.68-1.14-11.65-2.13.03-.99,5.29-1.64,11.75-1.45,6.46.19,11.68,1.14,11.65,2.13Z"/><polygon class="cls-1" points="392.43 89.4 392.43 103.21 445.12 109.64 609.61 95.5 609.61 74.3 571.38 66.59 392.43 89.4"/><polygon class="cls-3" points="392.43 103.21 553.39 85.86 609.61 95.5 445.12 109.64 392.43 103.21"/><rect class="cls-4" x="470.48" y="183.47" width="27.72" height="35.64" rx="7.11" ry="7.11"/><rect class="cls-15" x="475.13" y="189.45" width="18.42" height="23.68" rx="5.04" ry="5.04"/><path class="cls-2" d="M571.75,59.58l1.21,324.41,93.04-20.23.81-289.62-95.06-14.56ZM660.33,355.68l-76.45,14.97.81-297.71,75.64,12.54v270.21Z"/><path class="cls-10" d="M571.75,59.58l-209.53,27.51v262.12l210.75,34.79-1.21-324.41ZM372.73,341.92l-1.62-247.56,186.48-20.23,1.21,298.93-186.07-31.15Z"/><line class="cls-13" x1="446.61" y1="114.01" x2="446.61" y2="140.8"/></g><g id="Keyboard"><path class="cls-2" d="M239.5,422.96s53.19,13.95,58.05,13.62c4.86-.32,221.83-46.38,223.45-47.35,1.62-.97,4.22-6.16,4.22-6.16l-7.78-2.92s-71.35-13.95-74.92-13.3c-3.57.65-234.48,36.32-236.75,38.59-2.27,2.27-5.51,4.54-4.54,5.51.97.97,38.27,12,38.27,12Z"/><polyline class="cls-12" points="214.85 409.02 291 426.84 516.72 381.07"/><polyline class="cls-12" points="295.13 428.77 298.44 430.97 522.01 384.38"/><polyline class="cls-12" points="228.58 409.19 231.38 406.64 287.98 420.41 288.24 424.49"/><polyline class="cls-12" points="287.98 420.41 298.14 418.89 301.3 422.77"/><polyline class="cls-12" points="302.27 422.17 303.24 418.77 311.85 416.71 314.76 419.99 315.97 416.35 336.59 412.22 339.62 415.86"/><polyline class="cls-12" points="342.78 414.41 344.35 411.13 351.87 409.19 355.03 412.59"/><polyline class="cls-12" points="356.24 412.1 357.21 408.34 363.15 407.13 366.31 409.43 368.13 406.16 374.8 405.07 377.1 407.01"/><polyline class="cls-12" points="231.38 406.64 240.53 405.31 243.32 406.28 244.41 403.97 246.84 403.73 251.08 403.73 254.24 403 256.78 401.43 263.21 401.43 268.43 401.31 269.52 399.97 277.16 398.88 282.25 399.73 284.8 396.58 292.44 396.21 295.11 396.33 296.93 395 316.7 391.97 320.7 392.45 322.76 390.15 340.72 387.96 347.87 389.06 349.33 390.88"/><line class="cls-12" x1="335.26" y1="394.27" x2="347.51" y2="391.72"/><polyline class="cls-12" points="350.42 391.6 367.03 395.88 355.51 398.64 339.02 395.24"/><line class="cls-12" x1="355.51" y1="398.64" x2="355.51" y2="404.58"/><polyline class="cls-12" points="374.8 405.07 364.25 402.64 357.7 403.37 356.85 405.31"/><polyline class="cls-12" points="363.15 407.13 351.39 404.58 347.27 406.28 346.66 407.25"/><line class="cls-12" x1="357.21" y1="408.34" x2="350.66" y2="406.89"/><line class="cls-12" x1="368.13" y1="406.16" x2="360.24" y2="404.7"/><polyline class="cls-12" points="344.35 411.13 334.29 407.73 342.54 406.52 350.9 408.34"/><polygon class="cls-12" points="333.44 402.64 341.32 405.07 349.45 403.25 341.93 400.82 333.44 402.64"/><polyline class="cls-12" points="333.44 402.64 330.65 405.67 334.04 406.89"/><line class="cls-12" x1="349.45" y1="403.25" x2="351.39" y2="404.58"/><line class="cls-12" x1="336.59" y1="412.22" x2="285.89" y2="400.58"/><line class="cls-12" x1="245.87" y1="407.01" x2="295.96" y2="418.53"/><line class="cls-12" x1="247.44" y1="405.19" x2="301.66" y2="417.92"/><line class="cls-12" x1="255.33" y1="404.1" x2="309.91" y2="415.98"/><polyline class="cls-12" points="268.18 402.16 311.73 411.86 321.67 409.92"/><polyline class="cls-12" points="358.69 403.35 360.77 398.92 386.35 393.82 394.09 395.71 495.63 377.41 505.29 379.07 508.73 382.29"/><polyline class="cls-12" points="505.29 379.07 405.08 399.38 406.19 402.6"/><polyline class="cls-12" points="410.3 392.94 419.62 395.94 422.17 398.6"/><polyline class="cls-12" points="423.84 390.28 434.49 393.5 436.49 395.83"/><polyline class="cls-12" points="477.88 380.85 486.87 382.95 488.98 384.73"/><polyline class="cls-12" points="489.53 378.85 496.97 381.07 498.41 382.95"/><polyline class="cls-12" points="371.24 403.26 373.46 400.82 383 403.59 401.2 400.15 391.99 397.16"/><line class="cls-12" x1="401.2" y1="400.15" x2="402.64" y2="403.26"/><line class="cls-12" x1="405.08" y1="399.38" x2="397.43" y2="396.83"/><line class="cls-12" x1="373.46" y1="400.82" x2="389.55" y2="397.71"/><line class="cls-12" x1="361.58" y1="399.49" x2="367.47" y2="401.26"/><polyline class="cls-12" points="266.74 406.25 268.16 404.37 272.87 403.3"/><polyline class="cls-12" points="278.29 409.2 279.47 407.31 283.71 406.02"/><polyline class="cls-12" points="291.49 411.2 292.67 410.02 298.09 409.08"/><line class="cls-12" x1="274.4" y1="416.62" x2="279.12" y2="415.21"/><line class="cls-12" x1="265.21" y1="414.26" x2="268.39" y2="413.09"/><line class="cls-12" x1="242.11" y1="408.37" x2="247.65" y2="407.9"/><line class="cls-12" x1="250.72" y1="410.49" x2="256.49" y2="409.79"/><polyline class="cls-12" points="296.32 402.95 299.03 400.59 305.4 402.24 305.4 403.66"/><polyline class="cls-12" points="306.34 402.36 313.18 400.83 315.65 402.6 317.18 399.53 324.37 398 327.2 400.71 328.85 397.65 336.16 396.47 338.99 399.06"/><polyline class="cls-12" points="301.51 399.77 328.61 394.58 333.68 395.64"/><line class="cls-12" x1="313.18" y1="400.83" x2="308.11" y2="398.83"/><line class="cls-12" x1="317.18" y1="399.53" x2="312.47" y2="398.24"/><line class="cls-12" x1="328.85" y1="397.65" x2="322.6" y2="396.35"/><line class="cls-12" x1="295.11" y1="396.33" x2="305.16" y2="398.94"/><line class="cls-12" x1="297.74" y1="395.29" x2="309.17" y2="398.36"/><line class="cls-12" x1="306.69" y1="394.11" x2="316.48" y2="397.06"/><polyline class="cls-12" points="310.35 393.29 319.78 396.71 324.37 398"/><line class="cls-12" x1="321.78" y1="392.93" x2="326.26" y2="394.23"/><polyline class="cls-12" points="322.76 390.15 332.62 392.23 333.33 394.7"/><line class="cls-12" x1="343.35" y1="387.04" x2="451.06" y2="369.48"/><line class="cls-12" x1="352.81" y1="390.28" x2="462.57" y2="371.73"/><line class="cls-12" x1="361.21" y1="393.26" x2="474.47" y2="373.48"/><line class="cls-12" x1="389.22" y1="392.91" x2="486.2" y2="375.58"/><line class="cls-12" x1="435.23" y1="371.91" x2="479.41" y2="379.98"/><line class="cls-12" x1="446.1" y1="370.39" x2="485.84" y2="378.46"/><line class="cls-12" x1="462.93" y1="383.37" x2="428.8" y2="373.66"/><line class="cls-12" x1="451.83" y1="385.47" x2="420.85" y2="375.77"/><line class="cls-12" x1="434.65" y1="388.74" x2="404.84" y2="377.76"/><line class="cls-12" x1="425.18" y1="390.49" x2="396.19" y2="379.39"/><line class="cls-12" x1="414.43" y1="392.48" x2="386.26" y2="380.91"/><line class="cls-12" x1="402.5" y1="394.35" x2="375.74" y2="382.43"/><line class="cls-12" x1="387.08" y1="394.47" x2="364.87" y2="384.18"/><line class="cls-12" x1="376.68" y1="395.75" x2="354.82" y2="385.7"/><line class="cls-12" x1="271.95" y1="397.51" x2="274.53" y2="394.59"/><line class="cls-12" x1="283.53" y1="393.07" x2="288.55" y2="394.94"/><line class="cls-12" x1="294.28" y1="391.55" x2="299.65" y2="393.3"/><line class="cls-12" x1="307.13" y1="389.09" x2="313.91" y2="391.43"/><line class="cls-12" x1="319.76" y1="386.99" x2="327.12" y2="388.74"/><line class="cls-12" x1="330.04" y1="385.24" x2="337.52" y2="387.57"/><line class="cls-12" x1="341.26" y1="383.37" x2="347.11" y2="385.12"/><line class="cls-12" x1="366.97" y1="379.39" x2="371.88" y2="380.91"/><line class="cls-12" x1="377.26" y1="377.64" x2="382.87" y2="379.04"/><line class="cls-12" x1="386.38" y1="376" x2="391.99" y2="377.05"/><line class="cls-12" x1="399.12" y1="374.25" x2="405.08" y2="376"/><line class="cls-12" x1="410.57" y1="372.5" x2="417.35" y2="373.9"/><line class="cls-12" x1="419.1" y1="370.86" x2="425.88" y2="372.5"/><line class="cls-12" x1="428.68" y1="369.46" x2="434.41" y2="370.98"/></g><g id="Mouse"><path class="cls-8" d="M245.66,428.15s-11.68-15.24-30.81-19.13c-19.13-3.89-29.51,2.92-38.92,8.11-9.41,5.19-18.49,9.4-17.51,13.3.97,3.89,4.22,7.46,7.13,8.76,2.92,1.3,31.13,11.35,44.43,12.65,13.3,1.3,29.19-2.27,34.05-7.13s1.62-16.54,1.62-16.54Z"/><path class="cls-10" d="M242.72,424.86c-4.59-4.71-14.37-13.1-27.87-15.84-19.13-3.89-29.51,2.92-38.92,8.11-1.79.99-3.56,1.94-5.26,2.86,2-.47,15.84-3.55,22.45.06,7.13,3.89,20.11,9.41,34.05,9.41,7.92,0,12.8-2.3,15.55-4.59Z"/><path class="cls-2" d="M246.58,438.62c-4.74,2.92-11.79,5.75-21.02,5.42-18.49-.65-25.95-12.65-37.62-19.13-11.68-6.49-29.51,5.51-29.51,5.51.97,3.89,4.22,7.46,7.13,8.76,2.92,1.3,31.13,11.35,44.43,12.65,13.3,1.3,29.19-2.27,34.05-7.13,1.54-1.54,2.26-3.76,2.54-6.07Z"/></g><g id="Device_1"><polygon class="cls-8" points="54.38 73.6 49.47 76.57 76.56 336.77 81.06 334.89 54.38 73.6"/><path class="cls-8" d="M209.13,320.94l-21.19,61.54,49.06-10.45s-8.71-6.1-7.55-15.39c1.16-9.29,13.06-37.74,13.06-37.74l-33.38,2.03Z"/><path class="cls-2" d="M229.45,356.65c1.16-9.29,13.06-37.74,13.06-37.74l-23.49,1.43c-1.87,5.42-12.57,34.98-13.08,43.27-.49,7.79,4.12,12.3,6.13,13.73l24.93-5.31s-8.71-6.1-7.55-15.39Z"/><polygon class="cls-2" points="54.38 73.6 81.06 334.89 384.13 306.7 357.45 108.85 54.38 73.6"/><polygon class="cls-11" points="64.95 84.18 90.63 323.31 374.57 298.64 351.91 118.41 64.95 84.18"/><path class="cls-4" d="M257.55,168.66c5.01,14.76-1.48,29.35-14.49,32.59-13.02,3.24-27.63-6.09-32.64-20.85-5.01-14.76,1.48-29.35,14.49-32.59,13.02-3.24,27.63,6.09,32.64,20.85Z"/><path class="cls-4" d="M236.73,171.94c4.38-.88,6.44-5.67,4.6-10.7-1.84-5.03-6.89-8.39-11.27-7.51s-6.44,5.67-4.6,10.7,6.89,8.39,11.27,7.51Z"/><path class="cls-4" d="M258.54,184.82c-7.36-8.37-17.64-13.39-26.95-12.23-9.2,1.15-15.09,8.04-16.14,17.27,6.82,9,17.68,13.85,27.61,11.38,8.06-2.01,13.61-8.37,15.49-16.43Z"/><polygon class="cls-4" points="283.89 229.04 198.32 229.04 195.97 214.15 281.53 214.15 283.89 229.04"/><polygon class="cls-4" points="76.56 336.77 382.71 308.3 384.13 306.7 81.06 334.89 76.56 336.77"/><path class="cls-2" d="M170.99,407.58s6.43-6.13,12.72-8.98c6.28-2.84,32.77-12.87,62.99-15.26,30.22-2.39,101.74-3.74,106.53-3.89,4.79-.15,10.32-.6,10.92-2.24.6-1.65.86-8.95.86-8.95l-21.19,7.84-2.12-2.03s-23.34-2.24-66.13,1.2c-42.79,3.44-68.83,10.02-86.33,15.56-17.51,5.54-18.25,16.76-18.25,16.76Z"/><path class="cls-10" d="M145.56,395.84l27,9.29s10.16-14.8,59.51-22.64c49.35-7.84,111.76-6.39,111.76-6.39l21.19-7.84s-80.99-4.64-133.53,2.32c-52.54,6.97-79.25,17.13-85.92,25.26Z"/><path class="cls-2" d="M145.56,395.84s-8.71,10.74-6.39,11.61c2.32.87,28.74,1.16,30.77.29,2.03-.87,2.61-2.61,2.61-2.61l-27-9.29Z"/></g><g id="Plant"><path class="cls-4" d="M44.7,407.98l5.31,44.7c0,8.25,13.85,14.94,30.93,14.94s30.93-6.69,30.93-14.94l5.31-44.7H44.7Z"/><ellipse class="cls-4" cx="80.95" cy="407.98" rx="36.24" ry="10.26"/><ellipse class="cls-1" cx="80.95" cy="407.98" rx="28.24" ry="8"/><path class="cls-1" d="M18.69,307.73c3.36.92,11.05-.37,11.06-.37.08-.01-2.39-4.81-2.58-5.1-2.21-3.3-8.41-8.37-12.69-7.15-3.08.88-4.37,4.28-3.23,7.13,1.16,2.91,4.58,4.71,7.44,5.49Z"/><path class="cls-1" d="M97.01,298.1c.07.03.66-5.33.66-5.68-.02-3.97-2.4-11.62-6.64-12.96-3.05-.96-6,1.16-6.63,4.16-.64,3.07,1.23,6.46,3.18,8.69,2.29,2.62,9.42,5.79,9.43,5.79Z"/><path class="cls-1" d="M116,266.79c-4.44.16-8.77,6.91-9.85,10.73-.09.33-.96,5.66-.88,5.65,0,0,.07-.01.09-.01-.69,1.06-1.42,2.2-2.19,3.47-1.41,2.35-2.97,5.02-4.48,8.03-1.52,3.01-3.08,6.33-4.41,9.97-1.34,3.65-2.56,7.55-3.3,11.74,0,.05-.01.1-.02.14-.16-1.29-.74-4.89-.82-5.16-1.07-3.82-5.38-10.58-9.82-10.75-3.2-.12-5.48,2.7-5.29,5.77.2,3.13,2.89,5.9,5.36,7.54,2.79,1.85,9.94,2.99,10.51,3.08-.67,3.99-1.03,8.15-1.16,12.37-.08,2.41-.08,4.85-.06,7.29-.18-1.11-.35-2.1-.38-2.24-1.07-3.82-5.38-10.58-9.82-10.75-3.2-.12-5.48,2.7-5.29,5.77.19,3.13,2.89,5.9,5.36,7.54,2.51,1.66,8.59,2.76,10.2,3.02.02.94.03,1.87.05,2.81.11,4.49.24,8.97.24,13.37,0,1.55-.06,3.08-.11,4.6-.16-.99-.3-1.82-.34-1.94-1.07-3.82-5.38-10.58-9.82-10.75-3.2-.12-5.48,2.7-5.29,5.77.19,3.13,2.89,5.9,5.36,7.54,2.39,1.58,8,2.65,9.91,2.97-.1,1.56-.2,3.13-.37,4.64-.14,1.03-.2,2.03-.4,3.05-.17,1.02-.34,2.03-.51,3.03-.4,1.91-.8,3.89-1.23,5.74-.29,1.29-.59,2.52-.9,3.75.02-1.54,0-4.56-.04-4.82-.32-2.62-1.86-6.72-4.14-9.44-.04-.39-.12-.77-.24-1.14-.92-2.93-4.06-4.75-7-3.49-4.09,1.75-5.7,9.6-5.33,13.55.02.23.54,2.74.89,4.31-.35-.89-.68-1.76-1.05-2.68-.72-1.82-1.49-3.61-2.31-5.53-.43-.92-.86-1.84-1.3-2.78-.41-.94-.97-1.88-1.46-2.82-1.17-2.18-2.47-4.32-3.82-6.46,1.59-.63,7.19-2.96,9.27-5.09,2.07-2.12,4.11-5.4,3.64-8.5-.46-3.04-3.29-5.31-6.39-4.51-4.3,1.11-7.09,8.62-7.32,12.59-.01.25.14,3.11.25,4.68-.82-1.28-1.64-2.56-2.51-3.82-2.52-3.65-5.19-7.27-7.84-10.89-.81-1.11-1.61-2.22-2.41-3.34.57-.22,7.29-2.84,9.62-5.23,2.07-2.12,4.11-5.4,3.64-8.5-.46-3.04-3.29-5.31-6.39-4.51-4.3,1.11-7.09,8.62-7.32,12.59-.02.3.2,4.42.31,5.46-1.76-2.45-3.49-4.91-5.1-7.4-2.23-3.44-4.22-6.93-5.9-10.46.26-.1,7.29-2.81,9.68-5.25,2.07-2.12,4.11-5.4,3.64-8.5-.46-3.04-3.29-5.31-6.39-4.51-4.3,1.11-7.09,8.62-7.32,12.59-.02.26.15,3.4.26,4.89-.14.03-.11.03-.25.06-1.76-3.8-2.98-7.71-3.94-11.42-.56-2.15-.98-4.23-1.34-6.27,1.36-.37,7.56-2.13,9.95-4.09,2.29-1.88,4.68-4.92,4.55-8.05-.13-3.07-2.69-5.64-5.86-5.19-4.4.63-7.99,7.79-8.66,11.71-.04.21-.17,2.42-.24,4.02-.15-.92-.32-1.87-.44-2.76-.48-3.33-.71-6.4-.89-9.13-.09-1.55-.14-2.95-.18-4.27,1.15-1.06,5.71-5.39,6.9-8.18,1.16-2.73,1.89-6.52.33-9.24-1.53-2.67-4.99-3.77-7.59-1.91-3.61,2.59-3.5,10.6-2.29,14.38.1.33,2.32,5.25,2.39,5.19,0,0,.06-.05.07-.06,0,1.26.03,2.62.09,4.1.12,2.73.29,5.82.69,9.17.4,3.35.92,6.98,1.82,10.75.9,3.78,2.03,7.71,3.72,11.61.02.04.05.09.06.13-.85-.99-3.32-3.67-3.53-3.85-3-2.6-10.32-5.85-14.12-3.55-2.74,1.66-3.09,5.28-1.23,7.73,1.89,2.5,5.67,3.33,8.63,3.33,3.34,0,9.94-2.99,10.47-3.24,1.65,3.7,3.64,7.36,5.85,10.96,1.27,2.06,2.6,4.09,3.97,6.11-.76-.83-1.45-1.57-1.56-1.66-3-2.6-10.32-5.85-14.12-3.55-2.74,1.66-3.08,5.28-1.23,7.73,1.89,2.5,5.67,3.33,8.63,3.33,3.01,0,8.69-2.44,10.18-3.11.53.77,1.06,1.54,1.59,2.31,2.57,3.68,5.15,7.35,7.57,11.02.85,1.29,1.65,2.6,2.45,3.9-.68-.74-1.25-1.35-1.35-1.44-3-2.6-10.32-5.85-14.12-3.55-2.74,1.66-3.08,5.28-1.23,7.73,1.89,2.5,5.67,3.33,8.63,3.33,2.87,0,8.13-2.2,9.91-2.99.78,1.36,1.56,2.72,2.25,4.07.45.93.95,1.8,1.35,2.76.42.95.83,1.88,1.24,2.81.72,1.81,1.48,3.68,2.14,5.47.47,1.24.89,2.43,1.32,3.63-.84-1.3-2.52-3.8-2.69-4-2.57-3.02-9.32-7.35-13.42-5.65-2.96,1.23-3.85,4.75-2.39,7.45,1.49,2.76,5.1,4.15,8.02,4.6,3.23.5,9.94-1.36,10.78-1.6.71,1.98,1.37,3.92,1.97,5.76,2.08,6.3,3.57,11.64,4.57,15.41l2.98-.43c-.02-.09-.05-.16-.07-.25-1.1-3.8-2.73-9.19-4.99-15.57-.71-2.02-1.51-4.16-2.35-6.35.48-.28,3.23-1.88,5.6-3.7,2.6,2.11,8.79,4.13,9.59,4.38-.51,2.04-1.02,4.03-1.53,5.89-1.74,6.4-3.44,11.68-4.68,15.37l3.27-.47c1.12-3.65,2.53-8.5,3.96-14.23.52-2.07,1.04-4.3,1.55-6.59.85.05,7.82.45,10.87-.72,2.77-1.06,6-3.18,6.87-6.2.85-2.95-.76-6.2-3.92-6.78-4.37-.8-10.05,4.86-11.92,8.36-.11.21-1.06,2.58-1.63,4.09.2-.94.41-1.84.61-2.81.4-1.91.75-3.83,1.13-5.89.15-1,.3-2.01.45-3.04.17-1.01.22-2.1.34-3.16.22-2.46.33-4.97.38-7.5,1.67.35,7.63,1.5,10.54.87,2.9-.63,6.41-2.24,7.73-5.08,1.29-2.79.18-6.25-2.84-7.29-4.2-1.45-10.67,3.28-13.05,6.46-.15.2-1.6,2.67-2.37,4.04.02-1.52.04-3.04.01-4.57-.09-4.44-.32-8.93-.53-13.41-.07-1.37-.11-2.74-.17-4.11.59.13,7.65,1.65,10.91.94,2.9-.63,6.41-2.24,7.73-5.08,1.29-2.79.18-6.25-2.84-7.29-4.2-1.45-10.67,3.28-13.05,6.46-.18.24-2.27,3.8-2.75,4.73-.12-3.02-.21-6.02-.17-8.99.04-4.1.31-8.11.85-11.98.28.06,7.63,1.68,10.97.96,2.9-.63,6.41-2.24,7.73-5.08,1.29-2.79.18-6.25-2.84-7.29-4.2-1.45-10.67,3.28-13.05,6.46-.16.21-1.75,2.92-2.48,4.22-.13-.05-.11-.04-.24-.08.63-4.14,1.77-8.07,3.01-11.7.72-2.1,1.52-4.07,2.34-5.97,1.34.44,7.48,2.4,10.56,2.08,2.95-.31,6.62-1.52,8.24-4.2,1.59-2.63.87-6.19-2.03-7.56-4.02-1.9-10.97,2.09-13.68,4.98-.15.16-1.47,1.92-2.42,3.22.39-.85.77-1.74,1.15-2.54,1.44-3.04,2.94-5.73,4.29-8.1.78-1.34,1.51-2.54,2.21-3.66,1.54-.25,7.74-1.34,10.27-3.01,2.47-1.63,5.17-4.4,5.37-7.53.2-3.07-2.08-5.89-5.28-5.78Z"/></g></svg>